<?xml version="1.0" encoding="UTF-8"?>
<svg id="Camada_2" data-name="Camada 2" xmlns="http://www.w3.org/2000/svg" viewBox="0 0 753.34 523.31">
  <defs>
    <style>
      .cls-1 {
        fill: #fff;
      }
    </style>
  </defs>
  <g id="Camada_1-2" data-name="Camada 1">
    <g>
      <path class="cls-1" d="M448.22,377.75l-30.94-133.06c-7.73-9.86-18.74-19.03-28.48-27.24-.62-.53-5.36-4.63-5.77-4.15l-16.6,134.9c6.49,15.41-4.47,27.47-9.02,41.24l27.6-6.15,5.06-41.25,28.67,4.63,7.25,34.02c-21.15,6.03-42.63,11.38-64.46,14.47-3.61,1.28-9.44,6.22-8.33,10.29.57,2.09,8.04,11.82,9.94,13.15,5.43,3.81,9.08.03,12.46-4.24,3.54-4.48,5.12-10.17,8.52-14.54,19.25-4.49,38.98-7.44,57.86-13.23,1-.79,2.79-1.64,3.59-2.5,1.24-1.35,2.76-4.48,2.64-6.34ZM393.71,320.79l-.98-.94,7.61-59.8,13.44,63.4-20.07-2.67Z"/>
      <path class="cls-1" d="M308.73,150.52v22.1c-.66.82-1.45,1.12-2.42,1.43-7.5,2.39-28.02,3.42-33.14,7.22-1.52,1.13-3.19,3.6-3.48,5.49-.5,3.27-.5,15.22,0,18.49,1.66,10.82,20.5,1.83,27.25,1.07,13.94-1.58,25.93,6.26,27.18,20.73.78,9.09.98,34.05-2.46,41.78-5.57,12.49-14.35,9.2-25.24,12.55-8.55,2.63-6.09,5.99-10.77,9.72-4.02,3.2-9.12.46-9.34,7.46l-28.43,8.9v-29.14c2.26-1.39,5.19-2.3,7.71-3.18,11.62-4.06,29.63-7.99,39.93-13.23,3.74-1.9,5.18-4.41,5.55-8.54.32-3.66.45-18.29-1.04-20.79-.45-.76-1.55-1.79-2.36-2.12-4.48-1.81-17.46,3.86-23.39,4.46-13.45,1.36-25.23-6.71-26.43-20.62-.72-8.41-.78-24.97.03-33.32,1.41-14.59,11.78-21.45,24.86-24.46,11.75-2.7,24.05-4.24,35.99-5.97Z"/>
      <path class="cls-1" d="M515.62,253.65l-31.03,160.77c-1.15-.14-18.01-11.13-19.53-12.53-1.21-1.11-1.67-2.01-2.26-3.5l-31.72-144.1,24.88,6.82,18.35,101.43,16.47-99.47c.23-.96,1.07-1.05,1.78-1.43,6.27-3.31,16.41-4.78,23.06-8Z"/>
      <path class="cls-1" d="M547.64,187.03c-.49,6.63-3.58,12.53-2.41,19.38.29,1.66,2.46,5.02,2.3,5.82-.21,1.08-10.64,12.99-12.33,15.2-6.99,9.12-5.36,11.84-17.04,16.91-9.16,3.98-22.81,9.31-32.33,11.87-17.28,4.64-38.75-7.61-56.06-10.57-.96-.31-1.57-.88-2.21-1.64-.98-1.16-8.93-13.65-9.16-14.54-2.01-7.86,4.15-10.33,8.15-15.24,3.46-4.25,6.17-9.11,10.06-13.03,4.36.26,8.46,1.8,12.79,2.39,20.4,2.8,43.08,2.29,62.85-3.58,12.1-3.59,23.18-9.89,35.37-12.98Z"/>
      <path class="cls-1" d="M316.42,150.2c.28-.91,7.6-1.54,9.26-1.63,20.3-1.1,27.49,2.34,43.2,13.86,18.19,13.34,34.65,29.02,51.36,44.1l.51,1.19c-4.84,5.81-7.9,8.68-10.15,16.16-.21.71.44,1.14-.96.93l-47.73-39.7v126.82c-2.73-1.74-4.17-5.22-6.37-7.4-4.37-4.32-11.36-6.87-16.95-9.31l-1.02-1.55-.12-120.94c-.16-.69-.66-.99-1.19-1.37-2.72-1.92-14.41.75-18.29.89-.53.15-1.54-.66-1.54-.93v-21.14Z"/>
      <path class="cls-1" d="M427.86,203.68c-1.53,1.07-11.69-10.25-13.43-11.86-12.5-11.49-26.84-23.73-40.43-33.87-19.26-14.37-28.65-18.03-53.41-15.76-23.38,2.14-47.61,7.92-70.58,12.63l-13.64-6.87c4.35-.2,8.78.25,13.12-.01,2.16-.13,7.79-.61,9.47-1.42,4.68-2.26,7.04-13.07,16.04-17.27,10.71-5,52.41-12.76,64.2-12.07,12.74.74,18.75,6.71,27.85,14.43,17.59,14.92,39.26,35.41,53.78,53.19,4.4,5.39,9.94,11.25,7.05,18.88Z"/>
      <path class="cls-1" d="M237.64,311.29c-10.88-.7-21.22-3.67-23.7-15.69l-28.54-15.04c-.18-.36,2.42-5.76,2.87-6.79.3-.69-.44-1.08.99-.91l25.32,12.17v-105.69l23.06,11.21v120.74Z"/>
      <path class="cls-1" d="M351.59,340.49c-11.25-8.6-26.72-16.75-41.25-15.1l-62.46,10.23c.39-4.11,3.52-4.16,5.27-6.58.8-1.11,5.01-9.48,5.33-10.69.92-3.45-1.57-6.31-4.82-4.81-1.83.84-10.75,18.3-11.57,21.1-2.8,9.5,4.07,7.18,6.75,9.97.87.9,3.66,8.3,4.93,10.44,1.55,2.6,3.8,5.35,5.66,7.79,11.99,15.74,26.15,29.93,38.86,45.08,2.37.72,5.16-1.05,5.72-3.42l-7.45-10.57,50.27-14.75.95.96-12.03,23.2c2.2,4.06,4.92,4.77,7.69.64,3.97-5.93,9.74-18.5,13.04-25.39,7.84-16.41,11.55-25.53-4.89-38.09ZM348.61,370.7l-57.4,17.33c-12.93-14.05-26.41-28.19-35.62-45.03l1.62-.93c17.9-1.36,36.92-6.92,54.6-8.16,12.11-.85,30.96,8.67,39.52,17.11,5.65,5.58,5.62,16.93-2.71,19.69Z"/>
      <path class="cls-1" d="M358.69,339.47l-17.92-11.22c-8.16-3.51-18.6-10.64-27.7-9.73-13.45,1.33-28.91,7.68-42.53,8.7-.93.07-3.24.71-2.78-.86,1.15-3.94,8.72-15.8,12.34-17.77,5.17-2.81,35.46-10.26,41.77-10.75s14.83,4.28,20.6,7.56,8.81,4.32,10.92,10.86c2.37,7.37,2.82,15.8,5.3,23.19Z"/>
      <path class="cls-1" d="M380.6,417.12l22.29.51c-3.36,3.58-3.89,7-1.92,11.52-3.67,1.09-7.77,1.3-11.4,2.38-9.99,2.96-11.57,7.46-23.95,4.48-3.39-.82-6.29-3.32-9.14-3.67-22.43-2.73-60.78,8.7-74.1-14.93-3.55-6.3-3.64-13.51,2.63-17.71l10.67,15.29c2.85,2.33,6.11,4.87,9.83,5.54,10.35,1.88,45.58-2.06,51.51,1.01.99.51,1.9,1.85,3.16,2.61,8.44,5.08,15.84.27,20.43-7.03Z"/>
      <path class="cls-1" d="M279.27,395.19c-7.49,4.24-25.39,13.61-13.13,23.07,4.39,3.38,8.83.82,11.2,2.25.37.22,3.94,5.36,5.43,6.74,1.89,1.75,4.29,2.93,6.1,4.79-12.12,4.02-31.04-1.76-37.26-13.34-8.92-16.62,7.79-26.21,19.56-33.68,1.16,1.28,8.85,9.09,8.1,10.17Z"/>
      <path class="cls-1" d="M274.47,442.6c-5.69-.72-15.66-6.28-19.84-10.27-.77-.73-1.85-1.27-1.61-2.54,9.51,5.01,19.79,10.87,30.99,9.54,3.41-.4,6.61-2.2,10.29-2.52,12.88-1.12,28.42.22,41.68.05,5.95-.08,14.58-1.99,20.34.11l11.98,5.63h-93.84Z"/>
      <polygon class="cls-1" points="237.64 180.63 215.22 169.74 215.22 147.32 237.64 157.25 237.64 180.63"/>
      <path class="cls-1" d="M429.8,400.32l-1.27-5.1c7.35-1.88,15.8-2.73,21.44-8.34.96,0,4.28,15.55,5.33,17.71,2.77,5.72,10.15,6.46,12.89,12.02-3.6,12.28-19.56,6.44-24.9-1.16,4.48-5.19,8.71-9.91,4.57-16.87-5.3-8.93-11.75-.64-18.06,1.73Z"/>
      <path class="cls-1" d="M321.97,285.25c1.74,1.79,1.84,4.66,2.78,6.82l-42.91,9.61c.94-4.07,4.43-4.48,7.06-6.7,3-2.54,4-6.63,7.66-8.35,2.13-1,15.27-4.06,17.65-4.17s6.14,1.13,7.76,2.8Z"/>
      <path class="cls-1" d="M441.1,398.53c3.07-.3,6.87,5.62,2.77,8.51-1.64,1.16-3.37.73-4.93,1.47-8.73,4.19-17.44,11.83-26.7,15.58-2.7,7.83-12.09,1.8-5.83-3.27l34.68-22.29Z"/>
      <path class="cls-1" d="M250.45,392c-.45-3.54-2.47-7.65-2.43-11.21.03-3.22,2.09-6.5,2.43-9.6.41-3.73-.03-8.17-.64-11.85l16.65,20.79c-3.5,2.71-7.1,5.28-10.55,8.05-1.78,1.42-2.98,4.09-5.46,3.83Z"/>
      <g>
        <path class="cls-1" d="M257.49,77.51c-1.92,3.29-5.58,5.47-6.25,9.44-.36,2.11-.42,11.58,1.53,12.25l32.3-3.41c6.35-.7,11.05-8.29,17.59-8.1,8.22.25,11.17,11.51,4.48,16.07-3.26,2.22-7.17,1.37-10.73,2.08-10.67,2.14-22.69,4.89-33.15,7.85-8.29,2.35-18.56,8.97-26.21.59-2.29-2.51-.63-3.46-.94-6.05-.47-3.84-4.7-5.66-3.01-9.95,1.1-2.78,6.12-5.98,8.02-8.66,1.74-2.45,3.2-7.84,5.14-9.59,2.31-2.08,8.22-2.7,11.23-2.53Z"/>
        <path class="cls-1" d="M289.52,88.4c1.18,1.51-10.59,3.48-11.41,3.63-1.48.28-17.43,3.11-17.42,1.8.91-4.24,5.55-10,5.82-14.09.13-2.02-.76-4.11-.73-6.4.09-6.41,2.47-14.42,2.63-21.1.14-5.89-2.37-14.33-.87-19.45.79-2.7,9.17-14.3,11.41-16.77,2.6-2.86,6.39-6.67,10.58-5.45,1.4.72,1.81,4.75,1.94,6.4.44,5.73.18,24.48-3.52,28.56-3.35,3.69-6.45.9-9.76-1.23-2.09-.34-5.36,8.74-5.79,10.66-1.92,8.54-.29,17.6,1.06,26.13,4.76,3.53,10.39,5.72,16.06,7.33Z"/>
        <path class="cls-1" d="M253.01,122.35c-2.08,3.55-5.23,6.47-6.26,10.59,4.47,2.53,7.27,4.04,4.88,9.81-6.49-.65-15.85,1.2-21.98.06-2.16-.4-4.71-3.63-7.32-3.89-1.47-2.32,8.52-19.24,11.13-21.69,5.02,6.3,12.11,7.23,19.54,5.12Z"/>
        <path class="cls-1" d="M230.27,105.7c3.71,4.9-3.5,8.68-6.42,12.15-2.66,3.15-4.68,6.52-6.38,10.28-.84,1.86-1.96,6.72-2.59,7.66-1.05,1.58-5.56-1.61-5.97-3.02-.68-2.35,3.75-10.08,5.25-12.43,4.06-6.35,9.19-11.42,16.1-14.63Z"/>
      </g>
      <g>
        <path class="cls-1" d="M219.7,0v17.61c0,2.43-24.6,30.4-28.06,35.35-3.95,5.64-7.52,15.67-10.99,19.76-6.07,7.12-27.43,23.94-35.68,29.65-5.46,3.78-11.53,7.54-18.14,8.76,4.47-10.82,11.88-21.08,18.7-30.62,14.62-20.45,36.08-41.09,48.82-61.34,1.79-2.84,3.88-9.37,5.48-11.17,2.45-2.77,15.8-6.73,19.88-7.99Z"/>
        <path class="cls-1" d="M124.9,173.58l.63,28.16c-8.5,2.02-18.4,2.82-26.59,5.76-6.48,2.32-11.93,7.49-18.43,10.39-7.97,3.55-16.77,5.33-24.77,8.85.91-4.99,3.5-10.8,6.71-14.74,4.75-5.82,31.05-26.6,37.88-30.02,7.18-3.59,16.88-5.82,24.58-8.4Z"/>
        <path class="cls-1" d="M207.53,144.77c.56.81-3.12,3.57-3.9,4.09-4.48,3-3.92.54-8.04-1.45-3.83-1.84-7.82-3.46-12.09-3.92-2.37-.26-5.3.43-7.52-.16-3.28-.87-12.19-9.33-16-8.72-2.25.36-14.33,7.41-16.51,9.18-6.1,4.97-10.16,13.87-15.38,19.84-5.53,6.32-11.13,8.56-19.19,10.58l29.12-42.94,24.67-13.81,3.41,1.15,41.43,26.14Z"/>
        <path class="cls-1" d="M204.33,135.79l-39.65-24.05-26.01,13.79c-1.68.5-.93-3.64-.78-4.62.89-5.81,3.29-7.57,7.18-11.39,8.57-8.41,22.62-22.03,32.04-28.81,3.4-2.44,5.25-2.17,7.34,1.57-1.68,6.19-6.89,12.51-4.32,19.11l24.2,34.4Z"/>
        <polygon class="cls-1" points="132.59 118.5 132.59 129.7 121.7 146.04 121.7 121.7 132.59 118.5"/>
        <g>
          <path class="cls-1" d="M88.26,295.41c.52.38.54,1.76.81,2.41,9.4-2.65,19.19,2.01,28.52,3.83l-5.79,21.18c-.7.9-12.07,1.75-14.45,2.2-47.04,8.95-74.84,58.01-62.57,103.6,12.15,45.16,58.34,71.75,103.56,57.16,55.76-17.99,75.4-87.7,37.79-132.59l8.67-17.58c4.61,4.77,9.52,9.28,14.1,14.07,6.88,7.19,15.24,15.78,21.43,23.41.95,1.17,2.57,2.94,2.62,4.46.06,1.81-3.35.78-3.78,2.63l1.22,5.34,4.08-.53c1.71.43,2.46,13.61,2.29,15.95l-3.89.28c-1.78,4.75-.7,6.99,4.53,6.12l-1.31,15.34-4.37.12-1.19,4.76,4.31,1.57-3.89,14.7-4.43-1.26-1.36,5.47,3.22,1.94-6.67,13.71-4.09-1.83-2.63,4.74,3.83,2.54-8.33,12.49-4.16-2.44-3.47,4.6,2.47,3.2c-.13.72-9.86,9.65-10.64,9.92-2.23.77-1.45-2.32-3.61-2.38l-4.01,3.12,1.56,4.39-12.42,7.77-3.09-3.77-4,2.48.99,4.47c-4.2.84-8.67,4.16-12.77,4.91-2.34.43-1.94-1.91-2.65-3.52l-5.51,1.49.05,4.23-14.31,2.54-.65-4.48c-1.49.16-5.1-.72-5.67,1.04l-.09,4.08-15.38-.64-.03-4.46-4.72-.71-1.93,4.35-13.75-3.09.58-5.06-4.74-1.21-1.7,3.73c-1.51,1.3-12.29-5.37-14.7-5.74l1.86-4.17-4.21-2.81-2.79,3.78-12.8-8.34,2.31-3.8-3.91-3.85-3.2,3.16-9.88-10.47,2.54-3.29-2.57-3.86c-1.31-.87-2.92,1.99-4.19,2.23l-7.95-11.73,3.55-3.64-2.33-4.45-5.06,1.88-5.23-13.01,3.81-1.76c.61-.97-1.24-6.2-2.15-6.26-6.88,5.08-5.76-8.69-7.98-12.57l4.46-1.25.66-1.28-.67-4.81-4.71-.09-.96-.96-.73-13.69h5.12s.67-4.81.67-4.81l-.66-1.28-4.43-1.02,2.16-14.05,4.77-.02,1.3-6.32-4.38-1.4c-.96-1.48,3.05-12.32,4.38-14.38l5.14,1.65,1.87-5.99-4.39-2.64,7.34-13.14,3.36,2.46c1.7.77,4.72-4.33,4.55-5.25l-3.72-3.88c1.98-1.74,6.62-9.36,8.75-9.91,1.75-.46,3.06,2.18,4.36,3.12l4.1-4.24-2.22-4.7c1.5-1.51,9.37-9.32,11.18-8.27l2.85,3.71,4.63-3.12-1.59-5.06,12.45-6.43,2.54,4.42,4.72-2c.28-1.64-.27-3.9,1.18-5.07,1.81-1.46,10.15-3.89,12.22-2.39Z"/>
          <path class="cls-1" d="M202.1,311.28c-3.35-3.91-10.85-12.69-14.73-15.37-.54-.37-.63-.89-1.6-.63-.42,2.37-2.5,5.45-4.52,6.69-1.99,1.22-4.49.66-5.44,1.61-.52.52-5.89,12.55-5.96,13.28.57,2.28,9.58,7.05,9.24,9.19l-23.11,44.82-6.62,6.18c-2.43,4.82,8.04,31.97,7.29,33.52-.64,1.32-2.86,1.91-3.88.65-.58-.71-2.53-7.52-3.05-9.12-2.27-7.08-4.55-15.23-4.9-22.65-.05-1.04.89-2.94.55-3.41-.54-.74-5.25-.7-3.18-4.49l-16.92-7.75c-1.23,4.62-12.94,24.76-12.44,27.74.14.85,1.25,1.73,1.09,2.62-.23,1.26-7.62,7.11-8.6,11.91-.86,4.26,2.04,10.18,6.48,10.88,9.39,1.49,22.31-1.14,32.01.02,2.71.32,4.34,1.98,7.67,1.99,3.73,0,8.32-2.56,10.25-2.57,1.48,0,3.16,1.85,5.76,1.93,6,.19,7.02-4.7,5.82-9.71-.89-3.7-5.45-4.64-5.34-10.03.03-1.54,2.43-2.11,2.27-4.79-.31-5.21-4.82-3.9-5.96-8.17-.98-3.65,1.25-4.76.95-7.95-.28-2.91-2.59-5-3.18-7.7l20.51-42.01c.97-.26,1.06.26,1.6.63,11,7.59,20.23,22.12,30.74,30.75l22.08,26.27c-6.08-27.1-16.75-53.13-34.89-74.31ZM114.36,412.69c-2.55,0-4.61-2.07-4.61-4.61s2.07-4.61,4.61-4.61,4.61,2.07,4.61,4.61-2.07,4.61-4.61,4.61ZM126.18,409.93l-1.21-7.61,17.22-14.16,5.77,22.41-21.78-.63Z"/>
          <path class="cls-1" d="M153.73,274.79c.36.49-4.22,9.05-4.34,11.37-.1,2.02,1.47,3.32.87,5.27-13.12,32.38-26.41,64.67-41.68,96.08-2.92-3.42-7.22-7.54-6.69-12.42,6.27-23.33,14.76-46.18,20.78-69.56.39-1.5,2.17-7.34,1.53-8.25l-55.65-11.59c27.29-9.25,56.37-13.67,85.19-10.89Z"/>
          <path class="cls-1" d="M102.49,355.49l-4.83,15.34c-24.36,11.32-31.43,41.62-13.44,62.16,18.65,21.29,51.85,14.81,64.37-9.3l14.09-2.24c-3.89,18.69-21.58,34.3-40.21,37.6-41.62,7.38-73.85-34.88-57.45-73.46,6.34-14.91,21.25-27.86,37.46-30.11Z"/>
          <polygon class="cls-1" points="142.19 366.38 128.83 359.66 157.85 293.99 170.33 300.18 142.19 366.38"/>
          <path class="cls-1" d="M195.35,241.48l-15.35,36.88-13.83-6.12,12.15-26.34c5.74-1.27,11.77-1.49,17.03-4.42Z"/>
          <rect class="cls-1" x="162.45" y="272.83" width="14.11" height="27.42" transform="translate(-161.83 318.99) rotate(-64.99)"/>
          <path class="cls-1" d="M166.51,341.37c-1.04.71-5.12-2.83-6.32-3.49l7.3-15.7,5.94,4.79-6.93,14.4Z"/>
          <path class="cls-1" d="M146.69,371.5l.7-3.78c1.62-.43,2.83.26,3.77,1.54-1.24,1.5-2.34,2.63-4.47,2.24Z"/>
        </g>
        <path class="cls-1" d="M206.27,173.88c-.88-10.16-9.28-20.08-19.21-22.42-7.04-1.66-12.33.11-18.94,2.26-11.8,3.84-23.05,9.69-34.89,13.46v99.28h22.42v-30.1h24.66c10.72,0,20.92-8.9,24.2-18.72,2.73-8.19,2.57-34.43,1.76-43.76ZM183.79,207.17c-.37,2.41-4.44,7.41-6.69,7.41h-21.46v-33.95c7.38-.99,21.25-11.39,26.79-2.78.78,1.21,1.23,2.27,1.4,3.72.58,4.82.66,20.96-.05,25.59Z"/>
      </g>
      <g>
        <path class="cls-1" d="M547.01,272.22v73.98c-7.2,5.11-15.09,9.35-23.06,13.13v-80.06l23.06-7.05Z"/>
        <path class="cls-1" d="M566.22,242.76l-26.45,3.08c-6.57-2.64-1.61-11.18,1.2-15.2,5.21-7.44,12.53-13.18,21.39-15.43l3.85,27.54Z"/>
        <path class="cls-1" d="M523.95,270.94v-20.18l5.45-3.51c3.93,7.29,9.95,6.14,16.99,4.75l.31,11.26-22.75,7.68Z"/>
        <path class="cls-1" d="M554.7,270.94l.97-12.16,11.83-9.61c.31,2.8,2.04,7.7.95,10.23-.31.73-10.39,9.47-11.83,10.58-.64.49-.81,1.24-1.92.95Z"/>
        <g>
          <path class="cls-1" d="M712.26,197.27l-19.13,3.93c.18,8.44-.16,10.51-8.29,12.52-4.48,1.11-9.19,2.35-12.29-2.04-.97-1.37-1.17-3.17-1.86-4.54-.34-.68.33-1.2-1.33-.91l-37.79,96.71,25.21-5.06,10.5-25.03,29.87-5.82,2.95,14.78,25.35-5.73-13.18-78.83ZM673.83,255.56l15.36-37.15,5.5,32.69-20.86,4.45Z"/>
          <path class="cls-1" d="M656.53,208.17l-38.76,96.06c-.67.89-.6.7-1.24-.02-2.28-2.59-2.38-5.78-7.07-5.79l-27.21,5.16-12.19-79.41,20.49-3.2,12.17,64.68,26.58-72.38,27.23-5.11Z"/>
          <path class="cls-1" d="M662.3,150.53c-.18,1.11-1.28,1.11-2.07,1.45-12.43,5.34-26.03,6.44-37.59,14.93-5,3.67-8.47,9.65-15.78,8.94-1.66-.16-2.25-2.08-3.66-2.12-1.84-.04-16.62,3.1-17.77,4-1.25.98-1.03,2.6-1.73,2.9-2.33.98-6.53.73-9.41,1.97-3.56,1.53-13.89,16.5-13.89,20.11,0,1.98,1.19,3.95.61,6.01-7.01,3.15-12.22-1.57-11.28-9.04.52-4.14,5.41-13.32,4.99-16.16s-4.51-.91-6.43-1.93c5.11-5.31,9.53-11.44,14.71-16.67,5.14-5.2,5.59-5.77,13.15-6.7,16.72-2.06,34.33-2.76,51.23-4.49,11.62-1.19,23.16-3.85,34.91-3.19Z"/>
          <path class="cls-1" d="M684.69,179.36l3,8.91,22.65-4.44,1.21,7.96-1.01.88-21.9,4.68c.23,8.44.83,12.22-8.81,12.7-5.14.26-5.57-5.67-6.69-9.5l-62.9,11.59-1.02.87c.86,3.21,1.01,6.8-.4,9.88-.69.8-8.32,2.34-9.63,2.26-4.02-.25-4.19-6.69-4.78-9.94l-25.62,4.49-1.28-8.33,24.9-5.21-.53-8.22,14-2.53,2.32,8.28,63.03-12.21-.34-8.98,13.79-3.14Z"/>
          <path class="cls-1" d="M686.09,160.03l-1.05-2.5-1.14-.48c-5.34,1.57-11.39,2.12-16.63,3.89-2.13.72-4.03,2.22-6.08,2.88-12.09,3.88-24.91,5.89-37.33,8.46.17-.84,1.08-1.31,1.71-1.8,7.41-5.76,42.43-17.56,52.57-19.81,6.87-1.52,15.08-1.74,22.16-2.82,16.06-2.44,32.16-4.73,48.16-7.5,6.92,2.6,6.17,5.2-.49,7.13-5.31,1.54-16.84,2.52-20.95,4.67-1.83.96-5.14,5.34-7.08,7.01-3.17,2.73-6.54,5.35-9.94,7.79-1.2.07-10.1-7.4-12.96-7.98-3.74-.76-7.24,1.66-10.97,1.04Z"/>
          <rect class="cls-1" x="608.51" y="175.3" width="57.87" height="17.93" transform="translate(-23.51 125.66) rotate(-11.06)"/>
          <rect class="cls-1" x="617.09" y="302.86" width="80.86" height="10.05" transform="translate(-47.1 132.85) rotate(-11.14)"/>
          <path class="cls-1" d="M614.26,321.54c-4.63-.5-13.35,3.57-17.33,2.29-.82-.26-11.16-7.81-11.86-8.65-1.39-1.66-1.52-4.08-2.14-6.08l26.84-5.84c2.49,1.2,4.25,15.08,4.49,18.28Z"/>
          <path class="cls-1" d="M726.3,281.24c2.96,7.95-5.4,13.64-8.45,20.27l-15.84,3.37-1.64-17.97,25.93-5.67Z"/>
          <path class="cls-1" d="M733.39,167.18c.84.86-2.88,18.21-4.13,20.53-1.1,2.04-4.31,5.14-6.11,6.7-.56.48-4.74,4-5.13,3.51l-3.8-26.85,19.17-3.89Z"/>
          <path class="cls-1" d="M587.35,203.04l-20.49,3.85c.45-1.47-.65-3.57-.46-4.71.13-.82,8.37-12.73,9.39-13.58,2.33-1.96,6.27-1.65,9-2.84l2.56,17.29Z"/>
          <path class="cls-1" d="M708.99,179.29l-18.54,3.64-3.18-17.03c3.23.38,6.33-1.94,9.42-.79,1.21.45,10,6.79,10.79,7.81,1.43,1.85,1.84,4.07,1.51,6.38Z"/>
          <path class="cls-1" d="M742.36,261.97c-.48.48-4.81-3.24-5.46-3.82-7.35-6.5-8.85-9.63-11.01-19.1-1.48-6.51-2.48-13.37-3.38-19.99l19.85,42.91Z"/>
          <polygon class="cls-1" points="683.41 175.48 669.99 178.07 668.06 166.54 681.54 164.24 683.41 175.48"/>
          <path class="cls-1" d="M602.7,180.02l1.95,10.85-13.49,2.3-1.89-11.26c4.53-.24,8.86-2.27,13.42-1.89Z"/>
        </g>
      </g>
    </g>
  </g>
</svg>
