<?xml version="1.0" encoding="UTF-8"?>
<svg id="Camada_2" data-name="Camada 2" xmlns="http://www.w3.org/2000/svg" viewBox="0 0 1221.93 87.79">
  <defs>
    <style>
      .cls-1 {
        fill: #fff;
      }
    </style>
  </defs>
  <g id="Camada_1-2" data-name="Camada 1">
    <g id="kU7sSV">
      <g>
        <g>
          <g>
            <path class="cls-1" d="M1221.93,85.83v.45l-38.89-.04c-.42-.13-2.09-2.94-2.49-3.56-4.04-6.23-7.82-12.64-11.83-18.89l-.54-.36-71.37-.02-.35.16-14.12,22.71h-38.82l45.15-68.18C1099.04,4.2,1114.4.2,1131.14,0c18.03-.21,35.12,3.17,46.18,18.44l44.61,67.37ZM1104.56,50.88h55.88l-22.12-35.15c-2.45-3.64-7.7-3.95-10.86-1.03l-22.89,36.18Z"/>
            <path class="cls-1" d="M933.78,1.59l42.95,70.38c2.84,4.23,9.54,4.17,12.45.04L1032.41,1.59h38.26l-44.65,68.67c-10.56,17.86-34.02,18.07-52.41,17.14-15.58-.79-30.18-4.08-38.04-18.93L892.27,1.59h41.52Z"/>
          </g>
          <rect class="cls-1" x="844.24" y="1.59" width="37.48" height="84.69"/>
          <g>
            <path class="cls-1" d="M682.22,86.27h-38.94l-14.62-22.81-71.56-.05-.35.16-14.12,22.71h-38.82l44.61-67.37c11.86-16.3,28.73-19.3,47.95-18.65,16.84.57,30.93,4.01,41.24,18.2,13.06,19.94,26.36,39.72,39.45,59.64,1.48,2.26,3.7,5.16,4.89,7.44.13.25.35.39.27.74ZM620.73,50.88l-22.79-36.05c-3.11-3.16-8.63-2.7-11.06,1.03l-22.03,35.02h55.88Z"/>
            <path class="cls-1" d="M833.47,1.59c.2.18-2.51,4.2-2.82,4.69-14.1,21.87-28.61,43.48-42.68,65.38-10.48,16.01-32.67,16.64-49.99,15.98-13.61-.52-29.1-3.23-37.09-15.4L655.06,1.59h41.4l42.83,69.93c2.64,4.63,9.86,4.78,12.8.4L795.21,1.59h38.26Z"/>
          </g>
        </g>
        <g>
          <g>
            <path class="cls-1" d="M363.33,1.59v11.43h-104.24c-4.9.41-9.77,1.76-10.64,7.3-1.08,6.89,3.32,10.58,9.77,11.26l78.08.02c18.72.81,31.61,8.61,30.41,29.03s-20.64,24.93-38.26,25.65h-110.53v-11.44h103.56c5.6-.3,11.51-1.36,12.21-7.98.87-8.31-4.27-11.05-11.74-11.52-24.49-.78-49.67,1.08-74.08.02-19.11-.83-33.66-7.47-32.43-29.03,1.11-19.55,19.4-23.88,35.8-24.75h112.1Z"/>
            <polygon class="cls-1" points="530.51 1.59 530.51 13.01 469.47 13.01 469.47 86.27 432 86.27 432 13.01 371.18 13.01 371.18 1.59 530.51 1.59"/>
          </g>
          <g>
            <path class="cls-1" d="M37.48,53.12v33.16H0V1.59h105.82c15.17,1.36,42.97-.79,44.53,20.28.55,7.39.74,16.86-5.16,22.18-9.24,8.34-34.23,8.86-46.33,9.08-20.45.38-40.94-.31-61.39-.01ZM37.48,42.14h61.61c4.44-.4,9.61-.82,11.43-5.61,1.2-3.15,1.22-14.58.07-17.76-1.76-4.85-6.78-5.32-11.27-5.77h-61.84v29.13Z"/>
            <rect class="cls-1" x="164.05" y="1.59" width="37.25" height="84.69"/>
          </g>
        </g>
      </g>
    </g>
  </g>
</svg>
